<svg xmlns="http://www.w3.org/2000/svg" xmlns:xlink="http://www.w3.org/1999/xlink" id="Layer_1" width="30" height="20" x="0" y="0" enable-background="new 0 0 500 203" version="1.1" viewBox="0 0 500 203" xml:space="preserve"><path fill="#000202" stroke="none" d="M380.000000,204.000000 C253.333359,204.000000 127.166710,204.000000 1.000051,204.000000 C1.000034,136.333374 1.000034,68.666733 1.000017,1.000078 C167.666611,1.000052 334.333221,1.000052 500.999878,1.000026 C500.999908,68.666588 500.999908,136.333176 500.999939,203.999878 C460.833344,204.000000 420.666656,204.000000 380.000000,204.000000 M302.656158,110.629730 C303.193268,109.128983 303.730377,107.628242 304.724792,105.547623 C305.024353,103.026894 305.323944,100.506172 305.738495,97.207710 C303.288788,90.760529 301.857513,83.646141 298.166504,78.012192 C291.530945,67.883621 283.570404,58.619022 276.071136,49.065956 C275.235016,48.000858 273.800385,47.405624 272.643311,46.592487 C274.793915,53.117214 277.808533,58.737083 280.595490,64.467674 C285.215088,73.966492 289.688171,83.536560 293.624146,93.316856 C293.813751,96.540527 294.003387,99.764191 294.000061,103.528122 C293.699951,104.698944 293.399841,105.869766 292.587860,107.374237 C292.073883,107.980820 291.559906,108.587395 290.480896,109.531555 C288.319641,110.783707 286.158386,112.035858 283.122742,113.156281 C281.061340,113.160904 278.999939,113.165535 276.431091,112.796715 C275.610626,112.712471 274.790161,112.628227 273.262787,112.234795 C272.499817,112.177986 271.736877,112.121178 270.569275,111.689224 C270.035065,111.635422 269.500824,111.581619 268.334503,111.233871 C267.873291,111.222870 267.412109,111.211876 266.343781,110.767441 C262.534607,110.234108 258.561523,106.700729 254.516632,111.740791 C253.023605,113.130173 251.530594,114.519547 249.126984,116.756302 C257.230408,118.453674 264.132904,119.899506 271.774200,121.753632 C275.539917,121.906174 279.305603,122.058716 283.862457,122.392738 C285.914062,121.918327 287.965668,121.443924 290.732117,120.972488 C293.140747,119.312141 295.549377,117.651794 298.334412,115.440926 C299.591736,113.973839 300.849030,112.506752 302.656158,110.629730 M222.778961,23.440725 C224.517746,23.630947 226.256531,23.821169 228.616043,24.436110 C231.076080,24.870174 233.536102,25.304239 236.734024,26.123531 C239.474945,26.353607 242.215866,26.583683 245.581131,26.603598 C247.744125,24.664141 249.907135,22.724684 252.910477,20.031738 C248.555420,19.112446 245.238190,18.412224 241.124344,17.327320 C239.390686,17.007496 237.657043,16.687672 235.862228,16.279905 C235.862228,16.279905 235.755676,16.290937 235.368835,15.978311 C234.594589,16.011536 233.820328,16.044762 232.235428,15.973491 C230.881912,15.826850 229.528412,15.680208 227.694901,14.880409 C225.794144,14.944297 223.893402,15.008183 221.164032,14.898364 C218.775665,15.259921 216.387314,15.621479 213.228043,15.903831 C211.153275,16.609806 209.078506,17.315783 206.336945,18.136616 C189.520355,32.066730 194.992661,47.752651 205.967606,62.055717 C208.305435,65.040138 210.643280,68.024551 213.128815,71.675346 C216.278671,75.525536 219.428528,79.375725 222.817444,83.884514 C224.890411,86.383156 226.963364,88.881805 229.036331,91.380447 C229.616943,90.950890 230.197556,90.521332 230.778168,90.091766 C228.896362,87.319984 227.014557,84.548203 225.079163,81.047577 C222.174744,74.977318 219.270340,68.907059 216.198364,62.133133 C213.540192,56.914536 210.882004,51.695938 208.188873,45.676617 C206.962067,40.051029 206.085815,34.448277 209.844543,28.799137 C211.586075,27.256121 213.327591,25.713104 215.943573,24.139429 C217.947403,23.804590 219.951233,23.469749 222.778961,23.440725 M206.019608,96.267906 C206.310379,94.177811 206.601135,92.087708 207.147171,89.273796 C207.731369,86.518394 208.315552,83.762993 209.237869,80.314774 C209.502014,79.358986 210.290024,78.086594 209.937592,77.503441 C208.576584,75.251503 206.992279,73.083511 205.167953,71.196777 C204.683182,70.695412 202.197586,71.042603 202.068619,71.452560 C200.874725,75.247581 199.995956,79.141739 198.595886,83.610901 C198.095413,86.407669 197.594955,89.204445 196.827194,92.708076 C194.776718,96.478493 194.077148,100.224983 196.951660,104.442314 C196.949570,104.622482 196.947495,104.802643 196.349701,105.290573 C199.200882,112.687218 203.276215,118.948982 211.225800,121.777878 C222.153336,125.666512 231.984909,122.806480 240.864059,116.395638 C250.968353,109.100250 260.684509,101.266327 270.533386,93.620148 C271.213104,93.092415 271.593323,92.178902 272.932861,90.285988 C270.155396,91.177216 268.573181,91.487442 267.172272,92.169861 C262.099854,94.640762 257.109375,97.279350 252.048965,99.775490 C244.164001,103.664871 236.477844,108.102188 228.285675,111.187447 C217.917236,115.092316 211.458511,112.515717 206.231476,103.078865 C206.085968,101.060440 205.940460,99.042007 206.019608,96.267906 M263.012573,30.108942 C266.339813,28.378233 269.667053,26.647522 273.829193,25.064768 C277.884918,24.706423 281.940674,24.348078 286.574097,24.344995 C288.990601,26.022427 291.407135,27.699856 294.002716,30.052540 C294.478821,31.722212 295.529633,33.464142 295.330383,35.048897 C294.518890,41.503338 293.254028,47.899311 292.310638,54.339455 C291.994659,56.496792 291.337067,59.161224 292.246735,60.819988 C293.917847,63.867020 296.635925,66.339851 299.781769,70.079300 C301.921906,59.424889 304.267761,50.370705 305.435120,41.167042 C306.516388,32.642204 304.683563,24.575386 296.898132,18.282761 C292.917694,16.690754 288.937286,15.098746 284.104279,13.280638 C280.368317,13.752866 276.632385,14.225094 272.145660,14.747331 C268.118073,16.914019 264.090485,19.080704 259.412415,21.417665 C255.618057,24.313036 251.823700,27.208406 247.365860,30.286770 C240.244186,35.936588 233.122513,41.586403 226.000824,47.236221 C226.313248,47.722221 226.625671,48.208221 226.938095,48.694221 C234.779724,44.546410 242.621338,40.398602 251.153061,36.175266 C254.873566,34.167316 258.594055,32.159367 263.012573,30.108942 M248.501236,74.983398 C252.412369,75.528511 255.922073,74.225174 256.849213,70.474815 C257.499664,67.843788 256.873688,64.211876 255.412598,61.924492 C253.735275,59.298649 250.416885,58.142948 246.391708,60.243130 C244.611511,62.755413 241.146790,65.533119 241.489929,67.710823 C241.892502,70.265823 245.605438,72.299217 248.501236,74.983398 M153.105164,182.417938 C153.105164,185.211151 153.105164,188.004364 153.105164,191.336563 C157.536850,190.277512 162.364761,193.587738 165.759048,188.544327 C172.905045,192.996048 180.386917,192.652557 185.445236,187.428680 C190.875229,181.820953 191.731018,170.751495 186.648544,164.359848 C184.709641,161.921524 181.581924,159.359741 178.713104,158.977539 C174.296463,158.389130 169.635986,159.630951 164.606918,160.144501 C164.606918,156.242737 164.606918,151.345413 164.606918,146.625427 C160.473648,146.625427 156.904022,146.625427 153.105164,146.625427 C153.105164,158.509369 153.105164,169.973114 153.105164,182.417938 M377.822083,162.022186 C373.593475,171.560272 369.364899,181.098358 364.864349,191.249863 C368.819946,191.249863 371.341797,191.470535 373.794678,191.154953 C374.986450,191.001648 376.874573,189.997223 377.036591,189.118042 C378.108551,183.302551 382.094727,183.043076 386.712585,183.415176 C389.195740,183.615265 391.716736,183.579926 394.205231,183.416199 C396.908142,183.238388 398.411041,183.964783 399.186951,186.906052 C399.626099,188.570770 401.450348,190.676163 403.021790,191.058670 C405.801422,191.735245 408.864258,191.248260 412.522186,191.248260 C406.618408,177.253067 401.258606,163.841415 395.096344,150.809174 C394.302338,149.129944 389.357697,149.024292 386.318420,148.955338 C384.732239,148.919342 382.371185,150.158585 381.650330,151.510025 C380.002686,154.599106 379.149017,158.111664 377.822083,162.022186 M86.367699,148.728821 C85.239944,149.015182 84.078156,149.207977 82.990196,149.603729 C77.631088,151.553268 74.127464,155.406342 73.183655,160.925644 C72.478119,165.051514 77.071724,169.959869 82.877869,172.104065 C85.995270,173.255295 89.285179,173.960297 92.349098,175.225418 C93.618309,175.749481 95.053497,177.033035 95.457222,178.280579 C96.837372,182.545395 93.520439,183.293640 90.819855,182.676926 C85.591797,181.483032 80.549309,179.476517 75.143326,177.713333 C74.518112,178.929199 73.277130,180.613617 72.822701,182.488678 C72.531334,183.690872 72.953072,185.863632 73.817810,186.423599 C81.600128,191.463272 90.051498,193.251480 99.052589,190.279327 C104.948532,188.332520 107.882446,184.344284 107.959396,178.951599 C108.036392,173.555634 105.143089,169.511002 99.410385,167.340195 C96.300217,166.162460 92.909813,165.601639 89.987083,164.098831 C88.268135,163.214981 87.218094,161.030197 85.867203,159.430542 C87.868568,158.701935 90.012154,157.116440 91.842194,157.420151 C95.854797,158.086090 99.708580,159.709106 104.035393,161.069656 C105.200211,158.486160 106.392853,155.840927 107.652084,153.048019 C101.072243,148.822052 94.346375,147.728287 86.367699,148.728821 M193.184189,148.796783 C193.210846,150.864853 192.671356,153.145798 193.355911,154.966522 C197.858276,166.941605 202.624527,178.817490 207.513489,191.256973 C209.279968,191.256973 211.460556,191.001373 213.557770,191.310852 C217.757950,191.930634 219.621277,190.134750 221.037628,186.219299 C224.991821,175.288208 229.454865,164.541412 233.692886,153.712418 C234.261749,152.258804 234.691620,150.750793 235.346130,148.787125 C233.592178,148.787125 232.590927,148.935196 231.648300,148.762787 C226.017761,147.733109 223.288147,149.903000 221.782684,155.617172 C219.841812,162.983902 216.651169,170.021362 213.532745,178.462051 C212.445297,176.025253 211.726013,174.670242 211.222473,173.239334 C209.347763,167.911911 207.558472,162.554520 205.710159,157.217712 C202.788208,148.781006 202.779022,148.784195 193.184189,148.796783 M112.691086,172.255661 C112.914108,176.363937 111.976212,181.014252 113.590958,184.472748 C117.494255,192.832901 124.611763,193.923492 133.094376,188.873703 C136.840454,193.425766 141.411423,190.306335 145.651642,191.335815 C145.651642,185.224228 145.651657,179.912415 145.651657,174.600601 C145.651672,169.354523 145.651642,164.108459 145.651642,158.888824 C141.302475,158.888824 137.764481,158.888824 133.616730,158.888824 C134.031097,164.698959 134.903793,170.110901 134.570633,175.447556 C134.426865,177.750534 132.219055,180.775894 130.129288,181.798965 C128.795090,182.452133 125.638977,180.394424 123.924774,178.855743 C122.997978,178.023880 123.230873,175.732025 123.205811,174.094757 C123.128082,169.017822 123.177376,163.938950 123.177376,158.744019 C119.389656,158.744019 116.313896,158.744019 112.692673,158.744019 C112.692673,163.102310 112.692673,167.220352 112.691086,172.255661 M351.728088,158.522461 C336.078674,156.869919 326.704865,166.836533 331.111481,180.636734 C333.039825,186.675674 337.407806,190.289948 343.722687,191.286591 C350.592468,192.370834 356.846771,191.344055 361.256165,186.660828 C359.572510,184.316208 358.219177,182.431610 356.965881,180.686325 C348.434753,185.339890 343.944489,184.556442 341.895844,177.859039 C349.277374,177.859039 356.504028,177.859039 363.644196,177.859039 C364.673431,167.485199 361.149811,161.643158 351.728088,158.522461 M261.055115,190.732529 C263.524109,189.306335 265.993103,187.880142 268.482513,186.442139 C266.410095,183.994492 264.936279,182.253876 263.589661,180.663437 C254.797226,185.380173 249.965118,184.438400 248.420517,177.659973 C255.764755,177.659973 263.002747,177.659973 270.156799,177.659973 C271.175079,169.100189 267.997559,162.458054 261.847656,159.666504 C254.714676,156.428726 245.798309,158.163605 240.752426,163.771042 C236.659805,168.319107 234.913681,175.911224 237.015198,180.020615 C242.289291,190.333817 247.867004,192.961243 261.055115,190.732529 M305.314301,176.357498 C308.429688,177.498459 311.601624,178.513046 314.622986,179.864258 C315.435577,180.227692 316.379669,181.765076 316.194641,182.491257 C315.997284,183.265884 314.412567,184.351685 313.644470,184.204056 C309.819794,183.468933 306.064575,182.372330 301.897247,181.303543 C300.963562,183.065735 299.846710,185.173660 298.718018,187.303864 C305.567413,191.449066 312.395813,192.948502 319.672668,190.867157 C324.178925,189.578262 327.236816,186.716934 327.353790,181.612366 C327.465729,176.728088 324.718048,173.924255 320.440491,172.346069 C318.102142,171.483353 315.596985,171.016556 313.358124,169.964523 C312.258728,169.447891 311.594574,168.005127 310.733459,166.981491 C312.016174,166.477203 313.401001,165.382416 314.561768,165.583191 C317.617859,166.111847 320.576569,167.203659 323.973907,168.186890 C325.058380,166.174179 326.179382,164.093643 327.370087,161.883774 C321.021088,158.253098 314.802063,156.762253 308.598602,158.999176 C305.631531,160.069092 302.548065,162.918579 301.165405,165.763123 C299.318146,169.563538 300.816864,173.511688 305.314301,176.357498 M427.311310,157.628265 C427.311310,154.718674 427.311310,151.809097 427.311310,148.752853 C423.957275,148.752853 421.361053,148.336472 419.005280,148.909210 C417.595367,149.252014 415.541138,151.121933 415.516449,152.340652 C415.260651,164.978851 415.359070,177.624252 415.359070,190.776260 C419.497131,190.776260 423.314911,190.776260 427.311279,190.776260 C427.311279,179.904617 427.311279,169.250366 427.311310,157.628265 M282.413788,191.265274 C283.816559,191.140121 285.219330,191.014969 286.821259,190.872040 C286.821259,187.253448 286.821198,184.115799 286.821259,180.978149 C286.821381,169.862900 286.821411,169.862900 296.842804,166.898666 C296.842804,163.982330 296.842804,161.132660 296.842804,157.475998 C293.339386,158.925171 290.511505,160.094910 287.684113,161.264435 C284.448090,155.959061 279.634705,159.406448 275.072601,158.543777 C275.072601,164.423477 275.072601,169.704987 275.072601,174.986481 C275.072601,180.250946 275.072601,185.515411 275.072601,191.265381 C277.541962,191.265381 279.499420,191.265381 282.413788,191.265274 z" opacity="1"/><path fill="#00F2EF" stroke="none" d="M153.105164,181.927399 C153.105164,169.973114 153.105164,158.509369 153.105164,146.625427 C156.904022,146.625427 160.473648,146.625427 164.606918,146.625427 C164.606918,151.345413 164.606918,156.242737 164.606918,160.144501 C169.635986,159.630951 174.296463,158.389130 178.713104,158.977539 C181.581924,159.359741 184.709641,161.921524 186.648544,164.359848 C191.731018,170.751495 190.875229,181.820953 185.445236,187.428680 C180.386917,192.652557 172.905045,192.996048 165.759048,188.544327 C162.364761,193.587738 157.536850,190.277512 153.105164,191.336563 C153.105164,188.004364 153.105164,185.211151 153.105164,181.927399 M171.590393,183.224533 C177.727646,182.878113 178.283432,179.231232 178.466904,173.877975 C178.607498,169.775940 177.089676,168.012848 174.143372,166.799454 C170.751617,165.402664 167.953064,166.839890 166.079376,169.845383 C162.984329,174.810028 165.116501,180.722977 171.590393,183.224533 z" opacity="1"/><path fill="#00F6F3" stroke="none" d="M377.897461,161.737213 C379.149017,158.111664 380.002686,154.599106 381.650330,151.510025 C382.371185,150.158585 384.732239,148.919342 386.318420,148.955338 C389.357697,149.024292 394.302338,149.129944 395.096344,150.809174 C401.258606,163.841415 406.618408,177.253067 412.522186,191.248260 C408.864258,191.248260 405.801422,191.735245 403.021790,191.058670 C401.450348,190.676163 399.626099,188.570770 399.186951,186.906052 C398.411041,183.964783 396.908142,183.238388 394.205231,183.416199 C391.716736,183.579926 389.195740,183.615265 386.712585,183.415176 C382.094727,183.043076 378.108551,183.302551 377.036591,189.118042 C376.874573,189.997223 374.986450,191.001648 373.794678,191.154953 C371.341797,191.470535 368.819946,191.249863 364.864349,191.249863 C369.364899,181.098358 373.593475,171.560272 377.897461,161.737213 M388.417969,160.759369 C386.539246,165.398422 384.660522,170.037476 382.699524,174.879639 C387.000183,174.879639 390.510803,174.879639 394.678467,174.879639 C392.635590,169.903488 390.816986,165.473694 388.417969,160.759369 z" opacity="1"/><path fill="#00F2EF" stroke="none" d="M86.780983,148.638062 C94.346375,147.728287 101.072243,148.822052 107.652084,153.048019 C106.392853,155.840927 105.200211,158.486160 104.035393,161.069656 C99.708580,159.709106 95.854797,158.086090 91.842194,157.420151 C90.012154,157.116440 87.868568,158.701935 85.867203,159.430542 C87.218094,161.030197 88.268135,163.214981 89.987083,164.098831 C92.909813,165.601639 96.300217,166.162460 99.410385,167.340195 C105.143089,169.511002 108.036392,173.555634 107.959396,178.951599 C107.882446,184.344284 104.948532,188.332520 99.052589,190.279327 C90.051498,193.251480 81.600128,191.463272 73.817810,186.423599 C72.953072,185.863632 72.531334,183.690872 72.822701,182.488678 C73.277130,180.613617 74.518112,178.929199 75.143326,177.713333 C80.549309,179.476517 85.591797,181.483032 90.819855,182.676926 C93.520439,183.293640 96.837372,182.545395 95.457222,178.280579 C95.053497,177.033035 93.618309,175.749481 92.349098,175.225418 C89.285179,173.960297 85.995270,173.255295 82.877869,172.104065 C77.071724,169.959869 72.478119,165.051514 73.183655,160.925644 C74.127464,155.406342 77.631088,151.553268 82.990196,149.603729 C84.078156,149.207977 85.239944,149.015182 86.780983,148.638062 z" opacity="1"/><path fill="#00F4F2" stroke="none" d="M193.513031,148.792618 C202.779022,148.784195 202.788208,148.781006 205.710159,157.217712 C207.558472,162.554520 209.347763,167.911911 211.222473,173.239334 C211.726013,174.670242 212.445297,176.025253 213.532745,178.462051 C216.651169,170.021362 219.841812,162.983902 221.782684,155.617172 C223.288147,149.903000 226.017761,147.733109 231.648300,148.762787 C232.590927,148.935196 233.592178,148.787125 235.346130,148.787125 C234.691620,150.750793 234.261749,152.258804 233.692886,153.712418 C229.454865,164.541412 224.991821,175.288208 221.037628,186.219299 C219.621277,190.134750 217.757950,191.930634 213.557770,191.310852 C211.460556,191.001373 209.279968,191.256973 207.513489,191.256973 C202.624527,178.817490 197.858276,166.941605 193.355911,154.966522 C192.671356,153.145798 193.210846,150.864853 193.513031,148.792618 z" opacity="1"/><path fill="#00F5F2" stroke="none" d="M112.691879,171.797028 C112.692673,167.220352 112.692673,163.102310 112.692673,158.744019 C116.313896,158.744019 119.389656,158.744019 123.177376,158.744019 C123.177376,163.938950 123.128082,169.017822 123.205811,174.094757 C123.230873,175.732025 122.997978,178.023880 123.924774,178.855743 C125.638977,180.394424 128.795090,182.452133 130.129288,181.798965 C132.219055,180.775894 134.426865,177.750534 134.570633,175.447556 C134.903793,170.110901 134.031097,164.698959 133.616730,158.888824 C137.764481,158.888824 141.302475,158.888824 145.651642,158.888824 C145.651642,164.108459 145.651672,169.354523 145.651657,174.600601 C145.651657,179.912415 145.651642,185.224228 145.651642,191.335815 C141.411423,190.306335 136.840454,193.425766 133.094376,188.873703 C124.611763,193.923492 117.494255,192.832901 113.590958,184.472748 C111.976212,181.014252 112.914108,176.363937 112.691879,171.797028 z" opacity="1"/><path fill="#00F0ED" stroke="none" d="M352.126495,158.627716 C361.149811,161.643158 364.673431,167.485199 363.644196,177.859039 C356.504028,177.859039 349.277374,177.859039 341.895844,177.859039 C343.944489,184.556442 348.434753,185.339890 356.965881,180.686325 C358.219177,182.431610 359.572510,184.316208 361.256165,186.660828 C356.846771,191.344055 350.592468,192.370834 343.722687,191.286591 C337.407806,190.289948 333.039825,186.675674 331.111481,180.636734 C326.704865,166.836533 336.078674,156.869919 352.126495,158.627716 M353.595886,170.097092 C352.349274,166.733139 349.887726,164.623993 346.445404,165.876114 C344.197784,166.693680 342.527954,169.099655 340.599274,170.794098 C340.963409,171.405975 341.327545,172.017853 341.691711,172.629715 C345.711548,172.058594 349.731415,171.487457 353.595886,170.097092 z" opacity="1"/><path fill="#00EFED" stroke="none" d="M260.668976,190.856781 C247.867004,192.961243 242.289291,190.333817 237.015198,180.020615 C234.913681,175.911224 236.659805,168.319107 240.752426,163.771042 C245.798309,158.163605 254.714676,156.428726 261.847656,159.666504 C267.997559,162.458054 271.175079,169.100189 270.156799,177.659973 C263.002747,177.659973 255.764755,177.659973 248.420517,177.659973 C249.965118,184.438400 254.797226,185.380173 263.589661,180.663437 C264.936279,182.253876 266.410095,183.994492 268.482513,186.442139 C265.993103,187.880142 263.524109,189.306335 260.668976,190.856781 M248.158463,171.735336 C251.893921,171.909760 255.629379,172.084198 259.447998,172.262512 C260.248413,168.475189 258.847900,166.323837 255.457840,165.767151 C251.454636,165.109787 248.809418,166.844376 248.158463,171.735336 z" opacity="1"/><path fill="#00F2EF" stroke="none" d="M206.157318,103.944687 C211.458511,112.515717 217.917236,115.092316 228.285675,111.187447 C236.477844,108.102188 244.164001,103.664871 252.048965,99.775490 C257.109375,97.279350 262.099854,94.640762 267.172272,92.169861 C268.573181,91.487442 270.155396,91.177216 272.932861,90.285988 C271.593323,92.178902 271.213104,93.092415 270.533386,93.620148 C260.684509,101.266327 250.968353,109.100250 240.864059,116.395638 C231.984909,122.806480 222.153336,125.666512 211.225800,121.777878 C203.276215,118.948982 199.200882,112.687218 196.978012,105.283920 C200.456650,104.833069 203.306992,104.388878 206.157318,103.944687 z" opacity="1"/><path fill="#00F1EE" stroke="none" d="M305.001801,176.187576 C300.816864,173.511688 299.318146,169.563538 301.165405,165.763123 C302.548065,162.918579 305.631531,160.069092 308.598602,158.999176 C314.802063,156.762253 321.021088,158.253098 327.370087,161.883774 C326.179382,164.093643 325.058380,166.174179 323.973907,168.186890 C320.576569,167.203659 317.617859,166.111847 314.561768,165.583191 C313.401001,165.382416 312.016174,166.477203 310.733459,166.981506 C311.594574,168.005127 312.258728,169.447891 313.358124,169.964523 C315.596985,171.016556 318.102142,171.483353 320.440491,172.346069 C324.718048,173.924255 327.465729,176.728088 327.353790,181.612366 C327.236816,186.716934 324.178925,189.578262 319.672668,190.867157 C312.395813,192.948502 305.567413,191.449066 298.718018,187.303864 C299.846710,185.173660 300.963562,183.065735 301.897247,181.303543 C306.064575,182.372330 309.819794,183.468933 313.644470,184.204056 C314.412567,184.351685 315.997284,183.265884 316.194641,182.491257 C316.379669,181.765076 315.435577,180.227692 314.622986,179.864258 C311.601624,178.513046 308.429688,177.498459 305.001801,176.187576 z" opacity="1"/><path fill="#00EAE7" stroke="none" d="M427.311279,158.112183 C427.311279,169.250366 427.311279,179.904617 427.311279,190.776260 C423.314911,190.776260 419.497131,190.776260 415.359070,190.776260 C415.359070,177.624252 415.260651,164.978851 415.516449,152.340652 C415.541138,151.121933 417.595367,149.252014 419.005280,148.909210 C421.361053,148.336472 423.957275,148.752853 427.311310,148.752853 C427.311310,151.809097 427.311310,154.718674 427.311279,158.112183 z" opacity="1"/><path fill="#00F1EF" stroke="none" d="M281.935364,191.265320 C279.499420,191.265381 277.541962,191.265381 275.072601,191.265381 C275.072601,185.515411 275.072601,180.250946 275.072601,174.986481 C275.072601,169.704987 275.072601,164.423477 275.072601,158.543777 C279.634705,159.406448 284.448090,155.959061 287.684113,161.264435 C290.511505,160.094910 293.339386,158.925171 296.842804,157.475998 C296.842804,161.132660 296.842804,163.982330 296.842804,166.898666 C286.821411,169.862900 286.821381,169.862900 286.821259,180.978149 C286.821198,184.115799 286.821259,187.253448 286.821259,190.872040 C285.219330,191.014969 283.816559,191.140121 281.935364,191.265320 z" opacity="1"/><path fill="#148BF0" stroke="none" d="M297.250519,18.878834 C304.683563,24.575386 306.516388,32.642204 305.435120,41.167042 C304.267761,50.370705 301.921906,59.424889 299.781769,70.079300 C296.635925,66.339851 293.917847,63.867020 292.246735,60.819988 C291.337067,59.161224 291.994659,56.496792 292.310638,54.339455 C293.254028,47.899311 294.518890,41.503338 295.330383,35.048897 C295.529633,33.464142 294.478821,31.722212 294.082947,29.325176 C295.192261,25.358154 296.221405,22.118494 297.250519,18.878834 z" opacity="1"/><path fill="#00F3F1" stroke="none" d="M294.222992,93.076614 C289.688171,83.536560 285.215088,73.966492 280.595490,64.467674 C277.808533,58.737083 274.793915,53.117214 272.643311,46.592487 C273.800385,47.405624 275.235016,48.000858 276.071136,49.065956 C283.570404,58.619022 291.530945,67.883621 298.166504,78.012192 C301.857513,83.646141 303.288788,90.760529 305.311127,97.592026 C301.330170,96.343094 297.776581,94.709846 294.222992,93.076614 z" opacity="1"/><path fill="#03E7F2" stroke="none" d="M205.807083,61.411861 C194.992661,47.752651 189.520355,32.066730 206.667999,18.527065 C207.755371,22.314972 208.511703,25.712431 209.268021,29.109890 C206.085815,34.448277 206.962067,40.051029 208.029175,46.492535 C207.182007,52.009590 206.494553,56.710724 205.807083,61.411861 z" opacity="1"/><path fill="#128FEA" stroke="none" d="M255.037430,111.385201 C258.561523,106.700729 262.534607,110.234108 266.691589,111.334412 C268.936462,113.297096 270.759796,114.809647 272.746948,116.062454 C276.134216,118.197983 279.624390,120.170349 283.071320,122.211258 C279.305603,122.058716 275.539917,121.906174 271.288574,121.260666 C268.163055,119.168633 265.532684,117.553558 262.880585,115.975021 C260.277679,114.425758 257.652710,112.913635 255.037430,111.385201 z" opacity="1"/><path fill="#0FAAF5" stroke="none" d="M285.996399,23.989731 C281.940674,24.348078 277.884918,24.706423 273.414185,24.534130 C272.964935,20.901434 272.930695,17.799377 272.896423,14.697321 C276.632385,14.225094 280.368317,13.752866 284.634552,13.758592 C285.442017,17.487608 285.719208,20.738670 285.996399,23.989731 z" opacity="1"/><path fill="#04CCE0" stroke="none" d="M250.462967,36.250793 C242.621338,40.398602 234.779724,44.546410 226.938095,48.694221 C226.625671,48.208221 226.313248,47.722221 226.000824,47.236221 C233.122513,41.586403 240.244186,35.936588 247.690552,30.612862 C248.831146,32.709568 249.647049,34.480183 250.462967,36.250793 z" opacity="1"/><path fill="#0DAEEF" stroke="none" d="M247.089905,60.195343 C250.416885,58.142948 253.735275,59.298649 255.412598,61.924492 C256.873688,64.211876 257.499664,67.843788 256.849213,70.474815 C255.922073,74.225174 252.412369,75.528511 248.227966,74.274445 C247.666428,69.108772 247.378159,64.652054 247.089905,60.195343 z" opacity="1"/><path fill="#0CBBF4" stroke="none" d="M272.521057,14.722325 C272.930695,17.799377 272.964935,20.901434 272.996735,24.460152 C269.667053,26.647522 266.339813,28.378233 262.383270,29.854977 C261.190277,26.816471 260.626587,24.031929 260.062897,21.247391 C264.090485,19.080704 268.118073,16.914019 272.521057,14.722325 z" opacity="1"/><path fill="#05DBF4" stroke="none" d="M205.887344,61.733788 C206.494553,56.710724 207.182007,52.009590 208.046661,46.892895 C210.882004,51.695938 213.540192,56.914536 215.993622,62.732872 C214.852951,65.891396 213.917038,68.450180 212.981110,71.008965 C210.643280,68.024551 208.305435,65.040138 205.887344,61.733788 z" opacity="1"/><path fill="#09C9F2" stroke="none" d="M259.737671,21.332527 C260.626587,24.031929 261.190277,26.816471 262.034241,29.876215 C258.594055,32.159367 254.873566,34.167316 250.808014,36.213028 C249.647049,34.480183 248.831146,32.709568 248.022293,30.521366 C251.823700,27.208406 255.618057,24.313036 259.737671,21.332527 z" opacity="1"/><path fill="#1293EA" stroke="none" d="M286.285248,24.167362 C285.719208,20.738670 285.442017,17.487608 285.060852,13.871643 C288.937286,15.098746 292.917694,16.690754 297.074341,18.580797 C296.221405,22.118494 295.192261,25.358154 293.993408,28.987549 C291.407135,27.699856 288.990601,26.022427 286.285248,24.167362 z" opacity="1"/><path fill="#09CBF4" stroke="none" d="M213.054962,71.342155 C213.917038,68.450180 214.852951,65.891396 216.077393,63.084702 C219.270340,68.907059 222.174744,74.977318 224.861069,81.700165 C223.954773,82.643814 223.266586,82.934860 222.578384,83.225906 C219.428528,79.375725 216.278671,75.525536 213.054962,71.342155 z" opacity="1"/><path fill="#11A0F7" stroke="none" d="M283.466888,122.302002 C279.624390,120.170349 276.134216,118.197983 272.746948,116.062454 C270.759796,114.809647 268.936462,113.297096 266.995178,111.551132 C267.412109,111.211876 267.873291,111.222870 268.724152,111.605965 C269.733826,112.006828 270.353882,112.035599 270.973907,112.064369 C271.736877,112.121178 272.499817,112.177986 273.718933,112.640411 C275.096252,113.087402 276.017395,113.128784 276.938538,113.170166 C278.999939,113.165535 281.061340,113.160904 283.589233,113.564560 C285.176178,115.051918 286.386505,116.054298 287.391541,117.231880 C288.375580,118.384888 289.150543,119.716370 290.017273,120.969513 C287.965668,121.443924 285.914062,121.918327 283.466888,122.302002 z" opacity="1"/><path fill="#0FA7F4" stroke="none" d="M199.025665,83.007111 C199.995956,79.141739 200.874725,75.247581 202.068619,71.452560 C202.197586,71.042603 204.683182,70.695412 205.167953,71.196777 C206.992279,73.083511 208.576584,75.251503 209.937592,77.503441 C210.290024,78.086594 209.502014,79.358986 208.685577,80.677673 C205.097412,81.696075 202.061539,82.351593 199.025665,83.007111 z" opacity="1"/><path fill="#04E1F3" stroke="none" d="M293.923584,93.196732 C297.776581,94.709846 301.330170,96.343094 305.253662,97.980888 C305.323944,100.506172 305.024353,103.026894 304.149445,105.682129 C300.447083,104.873711 297.320038,103.930786 294.193024,102.987862 C294.003387,99.764191 293.813751,96.540527 293.923584,93.196732 z" opacity="1"/><path fill="#0BBFF6" stroke="none" d="M198.810760,83.309006 C202.061539,82.351593 205.097412,81.696075 208.516525,81.024078 C208.315552,83.762993 207.731369,86.518394 206.628189,89.641556 C203.104294,90.673286 200.099396,91.337250 197.094482,92.001213 C197.594955,89.204445 198.095413,86.407669 198.810760,83.309006 z" opacity="1"/><path fill="#07C9EA" stroke="none" d="M196.960846,92.354645 C200.099396,91.337250 203.104294,90.673286 206.500549,90.003464 C206.601135,92.087708 206.310379,94.177811 205.522690,96.642632 C201.022324,97.761642 196.582840,97.999596 197.025558,103.906860 C194.077148,100.224983 194.776718,96.478493 196.960846,92.354645 z" opacity="1"/><path fill="#1480E6" stroke="none" d="M254.777039,111.562996 C257.652710,112.913635 260.277679,114.425758 262.880585,115.975021 C265.532684,117.553558 268.163055,119.168633 270.919189,121.056519 C264.132904,119.899506 257.230408,118.453674 249.126984,116.756302 C251.530594,114.519547 253.023605,113.130173 254.777039,111.562996 z" opacity="1"/><path fill="#11A0F7" stroke="none" d="M244.956787,26.813759 C242.215866,26.583683 239.474945,26.353607 236.365479,25.479322 C235.972427,22.012691 235.947906,19.190268 235.923386,16.367846 C237.657043,16.687672 239.390686,17.007496 241.700516,17.799297 C246.448303,20.090260 244.717804,23.760960 244.956787,26.813759 z" opacity="1"/><path fill="#04D9EA" stroke="none" d="M246.740814,60.219238 C247.378159,64.652054 247.666428,69.108772 247.918640,74.062164 C245.605438,72.299217 241.892502,70.265823 241.489929,67.710823 C241.146790,65.533119 244.611511,62.755413 246.740814,60.219238 z" opacity="1"/><path fill="#05DBF4" stroke="none" d="M209.556274,28.954514 C208.511703,25.712431 207.755371,22.314972 207.001404,18.469635 C209.078506,17.315783 211.153275,16.609806 213.614594,16.369682 C214.357147,19.280384 214.713135,21.725237 215.069122,24.170090 C213.327591,25.713104 211.586075,27.256121 209.556274,28.954514 z" opacity="1"/><path fill="#0DAEEF" stroke="none" d="M290.374695,120.970993 C289.150543,119.716370 288.375580,118.384888 287.391541,117.231880 C286.386505,116.054298 285.176178,115.051918 284.026428,113.630424 C286.158386,112.035858 288.319641,110.783707 290.711639,109.684685 C290.110382,115.503677 295.347992,114.249733 297.958008,115.991447 C295.549377,117.651794 293.140747,119.312141 290.374695,120.970993 z" opacity="1"/><path fill="#0DAEEF" stroke="none" d="M235.892807,16.323875 C235.947906,19.190268 235.972427,22.012691 235.996536,25.286709 C233.536102,25.304239 231.076080,24.870174 228.309357,23.758163 C228.060059,20.564667 228.117477,18.049116 228.174896,15.533567 C229.528412,15.680208 230.881912,15.826850 232.942627,16.228647 C234.351761,16.419516 235.053726,16.355227 235.755676,16.290936 C235.755676,16.290937 235.862228,16.279905 235.892807,16.323875 z" opacity="1"/><path fill="#09CEF7" stroke="none" d="M215.506348,24.154758 C214.713135,21.725237 214.357147,19.280384 214.000061,16.409285 C216.387314,15.621479 218.775665,15.259921 221.580658,15.400097 C221.983215,18.312857 221.969131,20.723885 221.955063,23.134911 C219.951233,23.469749 217.947403,23.804590 215.506348,24.154758 z" opacity="1"/><path fill="#04E6F7" stroke="none" d="M196.988617,104.174591 C196.582840,97.999596 201.022324,97.761642 205.410370,97.020470 C205.940460,99.042007 206.085968,101.060440 206.194397,103.511772 C203.306992,104.388878 200.456650,104.833069 197.275864,105.130035 C196.947495,104.802643 196.949570,104.622482 196.988617,104.174591 z" opacity="1"/><path fill="#0BBFF6" stroke="none" d="M298.146210,115.716187 C295.347992,114.249733 290.110382,115.503677 290.994141,109.515900 C291.559906,108.587395 292.073883,107.980820 293.134064,107.380447 C296.488953,108.604317 299.297638,109.821983 302.106323,111.039658 C300.849030,112.506752 299.591736,113.973839 298.146210,115.716187 z" opacity="1"/><path fill="#09CEF7" stroke="none" d="M302.381226,110.834686 C299.297638,109.821983 296.488953,108.604317 293.390015,107.213623 C293.399841,105.869766 293.699951,104.698944 294.096558,103.257996 C297.320038,103.930786 300.447083,104.873711 303.920776,105.972061 C303.730377,107.628242 303.193268,109.128983 302.381226,110.834686 z" opacity="1"/><path fill="#0BBFF6" stroke="none" d="M222.367004,23.287819 C221.969131,20.723885 221.983215,18.312857 221.994965,15.486951 C223.893402,15.008183 225.794144,14.944297 227.934906,15.206988 C228.117477,18.049116 228.060059,20.564667 227.998993,23.545803 C226.256531,23.821169 224.517746,23.630947 222.367004,23.287819 z" opacity="1"/><path fill="#1184DB" stroke="none" d="M245.268951,26.708679 C244.717804,23.760960 246.448303,20.090260 242.098816,17.991638 C245.238190,18.412224 248.555420,19.112446 252.910477,20.031738 C249.907135,22.724684 247.744125,24.664141 245.268951,26.708679 z" opacity="1"/><path fill="#0BA3D7" stroke="none" d="M222.697906,83.555206 C223.266586,82.934860 223.954773,82.643814 224.887878,82.064590 C227.014557,84.548203 228.896362,87.319984 230.778168,90.091766 C230.197556,90.521332 229.616943,90.950890 229.036331,91.380447 C226.963364,88.881805 224.890411,86.383156 222.697906,83.555206 z" opacity="1"/><path fill="#128FEA" stroke="none" d="M276.684814,112.983444 C276.017395,113.128784 275.096252,113.087402 274.072388,112.795006 C274.790161,112.628227 275.610626,112.712471 276.684814,112.983444 z" opacity="1"/><path fill="#1184DB" stroke="none" d="M235.562256,16.134623 C235.053726,16.355227 234.351761,16.419516 233.347946,16.280895 C233.820328,16.044762 234.594589,16.011536 235.562256,16.134623 z" opacity="1"/><path fill="#128FEA" stroke="none" d="M270.771606,111.876801 C270.353882,112.035599 269.733826,112.006828 269.040222,111.752937 C269.500824,111.581619 270.035065,111.635422 270.771606,111.876801 z" opacity="1"/><path fill="#000D0D" stroke="none" d="M171.184967,183.191742 C165.116501,180.722977 162.984329,174.810028 166.079376,169.845383 C167.953064,166.839890 170.751617,165.402664 174.143372,166.799454 C177.089676,168.012848 178.607498,169.775940 178.466904,173.877975 C178.283432,179.231232 177.727646,182.878113 171.184967,183.191742 z" opacity="1"/><path fill="#001313" stroke="none" d="M388.708191,160.901642 C390.816986,165.473694 392.635590,169.903488 394.678467,174.879639 C390.510803,174.879639 387.000183,174.879639 382.699524,174.879639 C384.660522,170.037476 386.539246,165.398422 388.708191,160.901642 z" opacity="1"/><path fill="#001716" stroke="none" d="M353.673584,170.506714 C349.731415,171.487457 345.711548,172.058594 341.691711,172.629715 C341.327545,172.017853 340.963409,171.405975 340.599274,170.794098 C342.527954,169.099655 344.197784,166.693680 346.445404,165.876114 C349.887726,164.623993 352.349274,166.733139 353.673584,170.506714 z" opacity="1"/><path fill="#001716" stroke="none" d="M248.016495,171.321716 C248.809418,166.844376 251.454636,165.109787 255.457840,165.767151 C258.847900,166.323837 260.248413,168.475189 259.447998,172.262512 C255.629379,172.084198 251.893921,171.909760 248.016495,171.321716 z" opacity="1"/></svg>